HIERARCHY
ROOT reference
{
  OFFSET 0 0 0
  CHANNELS 6 Xposition Yposition Zposition Zrotation Xrotation Yrotation
  JOINT Hips
  {
    OFFSET 368.823 89.7904 194.012
    CHANNELS 3 Zrotation Xrotation Yrotation
    JOINT RightUpLeg
    {
      OFFSET -9.24587 -1.53924 -0.0496539
      CHANNELS 3 Zrotation Xrotation Yrotation
      JOINT RightLeg
      {
        OFFSET 0.0288962 -41.8853 0.065208
        CHANNELS 3 Zrotation Xrotation Yrotation
        JOINT RightFoot
        {
          OFFSET -0.153961 -42.496 -0.469978
          CHANNELS 3 Zrotation Xrotation Yrotation
          End Site
          {
            OFFSET 0 -7.69 17.5
          }
        }
      }
    }
    JOINT LeftUpLeg
    {
      OFFSET 9.30368 -1.65799 0.0114032
      CHANNELS 3 Zrotation Xrotation Yrotation
      JOINT LeftLeg
      {
        OFFSET 0.0812002 -41.8405 -0.136291
        CHANNELS 3 Zrotation Xrotation Yrotation
        JOINT LeftFoot
        {
          OFFSET 0.408244 -41.1613 0.400562
          CHANNELS 3 Zrotation Xrotation Yrotation
          End Site
          {
            OFFSET 0 -7.69 17.5
          }
        }
      }
    }
    JOINT Spine
    {
      OFFSET 0.0091145 14.2923 0.0603898
      CHANNELS 3 Zrotation Xrotation Yrotation
      JOINT Spine1
      {
        OFFSET 0.0313032 9.72692 0.0269052
        CHANNELS 3 Zrotation Xrotation Yrotation
        JOINT Spine2
        {
          OFFSET 0.0416827 10.1254 -0.000588186
          CHANNELS 3 Zrotation Xrotation Yrotation
          JOINT Spine3
          {
            OFFSET 0.0353017 9.71596 0.00525809
            CHANNELS 3 Zrotation Xrotation Yrotation
            JOINT Neck
            {
              OFFSET 0.0870676 10.3793 0.0454457
              CHANNELS 3 Zrotation Xrotation Yrotation
              JOINT Head
              {
                OFFSET 0.0878806 9.48152 0.0233162
                CHANNELS 3 Zrotation Xrotation Yrotation
                End Site
                {
                  OFFSET 0 15.95 0
                }
              }
            }
            JOINT RightShoulder
            {
              OFFSET -3.16008 6.92912 0.0289115
              CHANNELS 3 Zrotation Xrotation Yrotation
              JOINT RightArm
              {
                OFFSET -12.7589 0.0216905 0.0632467
                CHANNELS 3 Zrotation Xrotation Yrotation
                JOINT RightForeArm
                {
                  OFFSET -26.506 -0.0577999 0.0567862
                  CHANNELS 3 Zrotation Xrotation Yrotation
                  JOINT RightHand
                  {
                    OFFSET -25.9836 -0.0526551 -0.00138994
                    CHANNELS 3 Zrotation Xrotation Yrotation
                    JOINT RightHandThumb1
                    {
                      OFFSET -2.48905 0.190105 3.12053
                      CHANNELS 3 Zrotation Xrotation Yrotation
                      JOINT RightHandThumb2
                      {
                        OFFSET -3.68274 0 0
                        CHANNELS 3 Zrotation Xrotation Yrotation
                        JOINT RightHandThumb3
                        {
                          OFFSET -2.55832 0 0
                          CHANNELS 3 Zrotation Xrotation Yrotation
                          End Site
                          {
                            OFFSET -2.194 0 0
                          }
                        }
                      }
                    }
                    JOINT RightInHandIndex
                    {
                      OFFSET -3.22368 0.508421 1.97842
                      CHANNELS 3 Zrotation Xrotation Yrotation
                      JOINT RightHandIndex1
                      {
                        OFFSET -5.21684 -0.091368 0.999158
                        CHANNELS 3 Zrotation Xrotation Yrotation
                        JOINT RightHandIndex2
                        {
                          OFFSET -3.61937 0 0
                          CHANNELS 3 Zrotation Xrotation Yrotation
                          JOINT RightHandIndex3
                          {
                            OFFSET -2.0521 0 0
                            CHANNELS 3 Zrotation Xrotation Yrotation
                            End Site
                            {
                              OFFSET -1.805 0 0
                            }
                          }
                        }
                      }
                    }
                    JOINT RightInHandMiddle
                    {
                      OFFSET -3.38211 0.517263 0.756737
                      CHANNELS 3 Zrotation Xrotation Yrotation
                      JOINT RightHandMiddle1
                      {
                        OFFSET -5.17411 -0.084 0.313895
                        CHANNELS 3 Zrotation Xrotation Yrotation
                        JOINT RightHandMiddle2
                        {
                          OFFSET -3.94947 0 0
                          CHANNELS 3 Zrotation Xrotation Yrotation
                          JOINT RightHandMiddle3
                          {
                            OFFSET -2.47579 0 0
                            CHANNELS 3 Zrotation Xrotation Yrotation
                            End Site
                            {
                              OFFSET -1.975 0 0
                            }
                          }
                        }
                      }
                    }
                    JOINT RightInHandRing
                    {
                      OFFSET -3.36516 0.537895 -0.128947
                      CHANNELS 3 Zrotation Xrotation Yrotation
                      JOINT RightHandRing1
                      {
                        OFFSET -4.63474 -0.022105 -0.478947
                        CHANNELS 3 Zrotation Xrotation Yrotation
                        JOINT RightHandRing2
                        {
                          OFFSET -3.44238 0 0
                          CHANNELS 3 Zrotation Xrotation Yrotation
                          JOINT RightHandRing3
                          {
                            OFFSET -2.3881 0 0
                            CHANNELS 3 Zrotation Xrotation Yrotation
                            End Site
                            {
                              OFFSET -1.857 0 0
                            }
                          }
                        }
                      }
                    }
                    JOINT RightInHandPinky
                    {
                      OFFSET -3.16105 0.469368 -1.20179
                      CHANNELS 3 Zrotation Xrotation Yrotation
                      JOINT RightHandPinky1
                      {
                        OFFSET -4.14105 -0.022105 -1.09053
                        CHANNELS 3 Zrotation Xrotation Yrotation
                        JOINT RightHandPinky2
                        {
                          OFFSET -2.75653 0 0
                          CHANNELS 3 Zrotation Xrotation Yrotation
                          JOINT RightHandPinky3
                          {
                            OFFSET -1.74189 0 0
                            CHANNELS 3 Zrotation Xrotation Yrotation
                            End Site
                            {
                              OFFSET -1.645 0 0
                            }
                          }
                        }
                      }
                    }
                  }
                }
              }
            }
            JOINT LeftShoulder
            {
              OFFSET 3.24363 6.91883 -0.0263005
              CHANNELS 3 Zrotation Xrotation Yrotation
              JOINT LeftArm
              {
                OFFSET 12.8387 -0.0254922 -0.065819
                CHANNELS 3 Zrotation Xrotation Yrotation
                JOINT LeftForeArm
                {
                  OFFSET 26.503 -0.0679028 -0.0690065
                  CHANNELS 3 Zrotation Xrotation Yrotation
                  JOINT LeftHand
                  {
                    OFFSET 25.9897 -0.0384179 -0.0536179
                    CHANNELS 3 Zrotation Xrotation Yrotation
                    JOINT LeftHandThumb1
                    {
                      OFFSET 2.48905 0.190105 3.12053
                      CHANNELS 3 Zrotation Xrotation Yrotation
                      JOINT LeftHandThumb2
                      {
                        OFFSET 3.68274 0 0
                        CHANNELS 3 Zrotation Xrotation Yrotation
                        JOINT LeftHandThumb3
                        {
                          OFFSET 2.55832 0 0
                          CHANNELS 3 Zrotation Xrotation Yrotation
                          End Site
                          {
                            OFFSET 2.194 0 0
                          }
                        }
                      }
                    }
                    JOINT LeftInHandIndex
                    {
                      OFFSET 3.22368 0.508421 1.97842
                      CHANNELS 3 Zrotation Xrotation Yrotation
                      JOINT LeftHandIndex1
                      {
                        OFFSET 5.21684 -0.091368 0.999158
                        CHANNELS 3 Zrotation Xrotation Yrotation
                        JOINT LeftHandIndex2
                        {
                          OFFSET 3.61937 0 0
                          CHANNELS 3 Zrotation Xrotation Yrotation
                          JOINT LeftHandIndex3
                          {
                            OFFSET 2.0521 0 0
                            CHANNELS 3 Zrotation Xrotation Yrotation
                            End Site
                            {
                              OFFSET 1.805 0 0
                            }
                          }
                        }
                      }
                    }
                    JOINT LeftInHandMiddle
                    {
                      OFFSET 3.38211 0.517263 0.756737
                      CHANNELS 3 Zrotation Xrotation Yrotation
                      JOINT LeftHandMiddle1
                      {
                        OFFSET 5.17411 -0.084 0.313895
                        CHANNELS 3 Zrotation Xrotation Yrotation
                        JOINT LeftHandMiddle2
                        {
                          OFFSET 3.94947 0 0
                          CHANNELS 3 Zrotation Xrotation Yrotation
                          JOINT LeftHandMiddle3
                          {
                            OFFSET 2.47579 0 0
                            CHANNELS 3 Zrotation Xrotation Yrotation
                            End Site
                            {
                              OFFSET 1.975 0 0
                            }
                          }
                        }
                      }
                    }
                    JOINT LeftInHandRing
                    {
                      OFFSET 3.36516 0.537895 -0.128947
                      CHANNELS 3 Zrotation Xrotation Yrotation
                      JOINT LeftHandRing1
                      {
                        OFFSET 4.63474 -0.022105 -0.478947
                        CHANNELS 3 Zrotation Xrotation Yrotation
                        JOINT LeftHandRing2
                        {
                          OFFSET 3.44238 0 0
                          CHANNELS 3 Zrotation Xrotation Yrotation
                          JOINT LeftHandRing3
                          {
                            OFFSET 2.3881 0 0
                            CHANNELS 3 Zrotation Xrotation Yrotation
                            End Site
                            {
                              OFFSET 1.857 0 0
                            }
                          }
                        }
                      }
                    }
                    JOINT LeftInHandPinky
                    {
                      OFFSET 3.16105 0.469368 -1.20179
                      CHANNELS 3 Zrotation Xrotation Yrotation
                      JOINT LeftHandPinky1
                      {
                        OFFSET 4.14105 -0.022105 -1.09053
                        CHANNELS 3 Zrotation Xrotation Yrotation
                        JOINT LeftHandPinky2
                        {
                          OFFSET 2.75653 0 0
                          CHANNELS 3 Zrotation Xrotation Yrotation
                          JOINT LeftHandPinky3
                          {
                            OFFSET 1.74189 0 0
                            CHANNELS 3 Zrotation Xrotation Yrotation
                            End Site
                            {
                              OFFSET 1.645 0 0
                            }
                          }
                        }
                      }
                    }
                  }
                }
              }
            }
          }
        }
      }
    }
  }
}
MOTION
Frames: 2
Frame Time: 0.00833333
3.000000000000000000e+02 0.000000000000000000e+00 0.000000000000000000e+00 0.000000000000000000e+00 0.000000000000000000e+00 0.000000000000000000e+00 -3.121711154069723229e-02 -3.408040312507938652e-02 -6.453278171595719370e-02 2.221782995938910606e-03 3.597507265470800686e-02 9.981678488755799106e-02 2.963803927190073947e-02 1.675261844783712539e-02 -5.494010048491585613e-02 -5.457725974370754990e-02 -1.311938303750986509e-02 1.114303645698903715e-02 -3.290247259031252314e-02 2.352382821503607169e-01 -2.999270342637291864e-01 -3.327443570546520513e-01 -2.888153595227956894e-01 3.027336802503894364e-01 -2.564158905722356552e-02 -5.908611010460862456e-02 2.491853674492810339e-02 2.234780202327226600e-05 -5.321888492774668605e-02 -9.111212851318932493e-02 1.506811864894213584e-03 -1.400296115085530521e-02 -2.156449976841936025e-02 2.348595753295144341e-03 -2.145092966727802850e-02 -3.401508265998533925e-02 -2.714291136362875063e-04 -8.267599151046832635e-04 6.302615549277948773e-03 2.377098437417628912e-02 -2.100233211976481815e-02 4.329932657371617921e-01 2.906089120364843334e-02 1.035156181859850505e-01 -1.816117689297101767e-01 -1.012525083426156353e-01 5.442787705432713952e-02 6.362765539699212491e-02 8.137242445346029585e-02 1.152305403132979425e-02 1.125966164806574688e-01 -1.016530417201636505e+00 -8.565144917307766503e-01 5.310530896576124427e-01 -3.289619976129956082e-03 -2.439971263988832018e+00 -1.130501771306847925e+00 0.000000000000000000e+00 0.000000000000000000e+00 0.000000000000000000e+00 4.984446415579030829e-16 8.983039444698903849e-15 0.000000000000000000e+00 -5.760526711278216913e-16 2.750011103068464695e-15 0.000000000000000000e+00 4.868079164753369111e-15 -4.619921026571615585e-16 -8.180436781833408046e-16 0.000000000000000000e+00 0.000000000000000000e+00 0.000000000000000000e+00 0.000000000000000000e+00 2.038698811809464682e-15 6.085831832220670462e-15 0.000000000000000000e+00 9.076588724231172681e-16 2.050996558621823540e-15 4.868079164753369111e-15 -4.619921026571615585e-16 -8.180436781833408046e-16 0.000000000000000000e+00 -3.466458859744747227e-15 3.237415528595841860e-15 0.000000000000000000e+00 -1.847148348107564843e-15 3.745505226505483912e-15 0.000000000000000000e+00 1.155620344781859221e-15 2.372474792593465816e-15 4.868079164753369111e-15 -4.619921026571615585e-16 -8.180436781833408046e-16 0.000000000000000000e+00 0.000000000000000000e+00 0.000000000000000000e+00 0.000000000000000000e+00 2.871963226793412496e-16 1.824451672339784706e-15 0.000000000000000000e+00 9.723224581043220248e-16 1.382882323360234748e-15 4.868079164753369111e-15 -4.619921026571615585e-16 -8.180436781833408046e-16 0.000000000000000000e+00 0.000000000000000000e+00 0.000000000000000000e+00 0.000000000000000000e+00 -4.547485382306829171e-16 8.671466021405836513e-16 0.000000000000000000e+00 5.762011249689461647e-16 8.321092308705602382e-16 -1.844017293605589025e-01 -9.207023168896907861e-02 -4.001407290321645771e-01 -2.586185298283250056e-01 1.812748778278570061e-01 6.231345983726506166e-01 -1.915007187217433460e-01 9.616177396130468069e-02 1.227836292816175234e+00 2.563941639093677421e-02 5.473430774948848665e-01 -9.503457573790289326e-01 0.000000000000000000e+00 0.000000000000000000e+00 0.000000000000000000e+00 2.922993445910117863e-15 -4.315322438099363928e-15 0.000000000000000000e+00 2.355056088570839992e-15 -2.590797678244794186e-15 0.000000000000000000e+00 8.306271201444792591e-16 -7.637477358981564242e-17 -8.113749776232930426e-16 0.000000000000000000e+00 0.000000000000000000e+00 0.000000000000000000e+00 0.000000000000000000e+00 -6.852054830780196552e-16 7.262064686533236819e-16 0.000000000000000000e+00 -8.603857409876187658e-18 1.637858370996378509e-15 8.306271201444792591e-16 -7.637477358981564242e-17 -8.113749776232930426e-16 0.000000000000000000e+00 1.349569294818444734e-15 1.195770580774964329e-15 0.000000000000000000e+00 -1.680733090967882666e-16 1.024497329437850688e-15 0.000000000000000000e+00 -3.018787367499694092e-16 5.762269614764522381e-16 8.306271201444792591e-16 -7.637477358981564242e-17 -8.113749776232930426e-16 0.000000000000000000e+00 0.000000000000000000e+00 0.000000000000000000e+00 0.000000000000000000e+00 -1.425822119610623460e-16 1.029602302114176203e-15 0.000000000000000000e+00 5.995041665241970247e-16 1.169020256675960794e-15 8.306271201444792591e-16 -7.637477358981564242e-17 -8.113749776232930426e-16 0.000000000000000000e+00 0.000000000000000000e+00 0.000000000000000000e+00 0.000000000000000000e+00 1.135848775436110837e-15 1.472012095002966559e-15 0.000000000000000000e+00 4.450065809132849595e-17 1.361956146905389635e-15
3.000000000000000000e+02 0.000000000000000000e+00 0.000000000000000000e+00 0.000000000000000000e+00 0.000000000000000000e+00 0.000000000000000000e+00 -1.888788375838889033e-01 -1.902962234786804985e-01 -3.269654649655698297e-01 -6.071738746651623303e-02 2.059941475891430840e-01 3.280807125753657516e-01 -2.663458686989039759e-02 1.000392393563335862e-02 8.670704301020482063e-02 3.932675082072521755e-02 -2.617765744820284637e-02 -9.392638887549448201e-02 -1.625549341815620552e-01 3.676557490855712484e-01 -5.162784925266658553e-03 -2.627894777453628206e-01 -2.587135348707511051e-01 2.107365549318682696e-01 -1.505615326081047312e-02 5.458264101424261522e-02 6.951703406281299624e-02 -1.158023149774511790e-01 -6.935179917897182911e-02 8.216414596035744033e-02 -2.806396850160476630e-02 -2.105782990848638001e-02 2.476153176701051048e-02 -4.645569363212553871e-02 -3.536036867743560380e-02 4.211310801002510207e-02 8.818698466474172363e-05 -2.030640781523391798e-04 2.846120370585515560e-03 1.206850621913011477e-02 -6.721652949396071143e-03 1.930395226959319976e-01 4.257064079093608906e-04 8.642300986495801696e-02 -8.533083540955947732e-02 -7.177757823236324830e-02 3.049509935888400358e-02 2.567994961927949626e-02 2.490615338600543349e-01 1.364635090262723283e-01 2.901245457491637980e-01 -8.674069183911412573e-01 -7.949855122167441834e-01 4.535842046061664967e-01 5.155367257236462275e-02 -2.324298370074765252e+00 -9.805135353746819993e-01 0.000000000000000000e+00 0.000000000000000000e+00 0.000000000000000000e+00 -2.467432725010330079e-16 1.241692311950048307e-14 0.000000000000000000e+00 4.141169349153339570e-15 6.339224156808446795e-15 0.000000000000000000e+00 7.945504344315400710e-15 7.505108260530148160e-16 8.884807997443625703e-16 0.000000000000000000e+00 0.000000000000000000e+00 0.000000000000000000e+00 0.000000000000000000e+00 3.029282984767245057e-15 8.004535990832331513e-15 0.000000000000000000e+00 -4.256903394531823861e-16 3.490339724879444583e-15 7.945504344315400710e-15 7.505108260530148160e-16 8.884807997443625703e-16 0.000000000000000000e+00 -1.711432567025443777e-15 4.238102202215954042e-15 0.000000000000000000e+00 -2.575314783165518912e-15 4.332345834045891118e-15 0.000000000000000000e+00 7.379537099196840134e-16 3.155548366686638720e-15 7.945504344315400710e-15 7.505108260530148160e-16 8.884807997443625703e-16 0.000000000000000000e+00 0.000000000000000000e+00 0.000000000000000000e+00 0.000000000000000000e+00 1.654234743425247063e-15 2.710662812732317603e-15 0.000000000000000000e+00 7.857254918293935579e-16 1.457970008498851046e-15 7.945504344315400710e-15 7.505108260530148160e-16 8.884807997443625703e-16 0.000000000000000000e+00 0.000000000000000000e+00 0.000000000000000000e+00 0.000000000000000000e+00 6.891137294963350299e-17 1.059285006638442420e-15 0.000000000000000000e+00 9.937630500123461101e-16 -2.670699757510104948e-16 -1.521629247794707707e-01 -7.011748018664573645e-02 -3.270659713073008068e-01 -2.172635957162887821e-01 1.836323925345233754e-01 5.409434308886839071e-01 -1.195157710129387124e-01 6.134015793663893240e-02 8.313088875917080678e-01 -7.606209643699604964e-03 5.265394210371784345e-01 -9.407735751267306545e-01 0.000000000000000000e+00 0.000000000000000000e+00 0.000000000000000000e+00 1.709963359961984269e-15 -4.496693503293115101e-15 0.000000000000000000e+00 9.200214655716865527e-16 -3.973509766426356162e-15 0.000000000000000000e+00 -1.420339134163476986e-15 1.353711293182045663e-16 -1.779201462457263393e-15 0.000000000000000000e+00 0.000000000000000000e+00 0.000000000000000000e+00 0.000000000000000000e+00 -1.854070488223423396e-15 -1.081076254978433816e-15 0.000000000000000000e+00 1.411752776046329285e-16 1.262522971718310935e-15 -1.420339134163476986e-15 1.353711293182045663e-16 -1.779201462457263393e-15 0.000000000000000000e+00 2.144663810888946824e-16 -6.851008402435955896e-16 0.000000000000000000e+00 1.476055658242366391e-15 9.187883988894055062e-16 0.000000000000000000e+00 -1.196385428968589941e-15 1.245548040767195090e-15 -1.420339134163476986e-15 1.353711293182045663e-16 -1.779201462457263393e-15 0.000000000000000000e+00 0.000000000000000000e+00 0.000000000000000000e+00 0.000000000000000000e+00 1.215821829036620944e-16 3.698594668619529370e-16 0.000000000000000000e+00 1.025116375324880770e-15 3.793835718147075696e-16 -1.420339134163476986e-15 1.353711293182045663e-16 -1.779201462457263393e-15 0.000000000000000000e+00 0.000000000000000000e+00 0.000000000000000000e+00 0.000000000000000000e+00 1.306588603115228333e-15 2.972532545743430348e-16 0.000000000000000000e+00 2.715246309802029408e-16 6.506941984750468327e-16
